<mxfile host="app.diagrams.net" agent="Mozilla/5.0 (Windows NT 10.0; Win64; x64) AppleWebKit/537.36 (KHTML, like Gecko) Chrome/136.0.0.0 Safari/537.36" version="26.0.16">
  <diagram name="페이지-1" id="1dnptGNsr8sECKLRQFxi">
    <mxGraphModel dx="878" dy="508" grid="1" gridSize="10" guides="1" tooltips="1" connect="1" arrows="1" fold="1" page="1" pageScale="1" pageWidth="827" pageHeight="1169" math="0" shadow="0">
      <root>
        <mxCell id="0" />
        <mxCell id="1" parent="0" />
        <mxCell id="v-qG8luXAzPql-lUKYtl-8" value="" style="rounded=0;whiteSpace=wrap;html=1;strokeColor=#6c8ebf;fillColor=#dae8fc;" vertex="1" parent="1">
          <mxGeometry x="160" y="250" width="210" height="160" as="geometry" />
        </mxCell>
        <mxCell id="v-qG8luXAzPql-lUKYtl-1" value="FPGA&lt;br&gt;(학부생 때 사용한 코드)" style="rounded=0;whiteSpace=wrap;html=1;" vertex="1" parent="1">
          <mxGeometry x="60" y="290" width="140" height="80" as="geometry" />
        </mxCell>
        <mxCell id="v-qG8luXAzPql-lUKYtl-2" value="라즈베리" style="rounded=0;whiteSpace=wrap;html=1;" vertex="1" parent="1">
          <mxGeometry x="340" y="298" width="140" height="80" as="geometry" />
        </mxCell>
        <mxCell id="v-qG8luXAzPql-lUKYtl-4" value="" style="endArrow=classic;html=1;rounded=0;" edge="1" parent="1" source="v-qG8luXAzPql-lUKYtl-2" target="v-qG8luXAzPql-lUKYtl-1">
          <mxGeometry width="50" height="50" relative="1" as="geometry">
            <mxPoint x="460" y="410" as="sourcePoint" />
            <mxPoint x="510" y="360" as="targetPoint" />
            <Array as="points">
              <mxPoint x="270" y="350" />
            </Array>
          </mxGeometry>
        </mxCell>
        <mxCell id="v-qG8luXAzPql-lUKYtl-5" value="" style="endArrow=classic;html=1;rounded=0;" edge="1" parent="1" source="v-qG8luXAzPql-lUKYtl-1" target="v-qG8luXAzPql-lUKYtl-2">
          <mxGeometry width="50" height="50" relative="1" as="geometry">
            <mxPoint x="460" y="410" as="sourcePoint" />
            <mxPoint x="510" y="360" as="targetPoint" />
            <Array as="points">
              <mxPoint x="240" y="320" />
            </Array>
          </mxGeometry>
        </mxCell>
        <mxCell id="v-qG8luXAzPql-lUKYtl-6" value="CNN 결과(30초)&lt;br&gt;resnet 50&amp;nbsp;" style="text;html=1;align=center;verticalAlign=middle;resizable=0;points=[];autosize=1;strokeColor=none;fillColor=none;" vertex="1" parent="1">
          <mxGeometry x="200" y="275" width="110" height="40" as="geometry" />
        </mxCell>
        <mxCell id="v-qG8luXAzPql-lUKYtl-7" value="128x128 이미지" style="text;html=1;align=center;verticalAlign=middle;resizable=0;points=[];autosize=1;strokeColor=none;fillColor=none;" vertex="1" parent="1">
          <mxGeometry x="205" y="360" width="110" height="30" as="geometry" />
        </mxCell>
        <mxCell id="v-qG8luXAzPql-lUKYtl-9" value="USB-UART" style="text;html=1;align=center;verticalAlign=middle;resizable=0;points=[];autosize=1;strokeColor=none;fillColor=none;" vertex="1" parent="1">
          <mxGeometry x="150" y="228" width="80" height="30" as="geometry" />
        </mxCell>
        <mxCell id="v-qG8luXAzPql-lUKYtl-10" value="★ 우선도&lt;div&gt;1. FPGA↔라즈베리 통신 및 라즈베리에서 CNN 결과 받기&lt;/div&gt;&lt;div&gt;2. CNN 모델 정확도 개선&lt;/div&gt;&lt;div&gt;3. FPGA 설계 개선&lt;/div&gt;" style="text;html=1;align=left;verticalAlign=middle;resizable=0;points=[];autosize=1;strokeColor=none;fillColor=none;" vertex="1" parent="1">
          <mxGeometry x="65" y="440" width="320" height="70" as="geometry" />
        </mxCell>
        <mxCell id="v-qG8luXAzPql-lUKYtl-11" value="정확도 ~73%" style="text;html=1;align=center;verticalAlign=middle;resizable=0;points=[];autosize=1;strokeColor=none;fillColor=none;" vertex="1" parent="1">
          <mxGeometry x="50" y="268" width="90" height="30" as="geometry" />
        </mxCell>
        <mxCell id="v-qG8luXAzPql-lUKYtl-12" value="&amp;nbsp;&amp;nbsp;" style="rounded=0;whiteSpace=wrap;html=1;" vertex="1" parent="1">
          <mxGeometry x="560" y="298" width="260" height="262" as="geometry" />
        </mxCell>
        <mxCell id="v-qG8luXAzPql-lUKYtl-14" value="FPGA" style="text;html=1;align=center;verticalAlign=middle;resizable=0;points=[];autosize=1;strokeColor=none;fillColor=none;" vertex="1" parent="1">
          <mxGeometry x="549" y="277" width="60" height="30" as="geometry" />
        </mxCell>
        <mxCell id="v-qG8luXAzPql-lUKYtl-15" value="" style="endArrow=none;html=1;rounded=0;" edge="1" parent="1">
          <mxGeometry width="50" height="50" relative="1" as="geometry">
            <mxPoint x="520" y="630" as="sourcePoint" />
            <mxPoint x="520" y="210" as="targetPoint" />
          </mxGeometry>
        </mxCell>
        <mxCell id="v-qG8luXAzPql-lUKYtl-21" value="" style="edgeStyle=orthogonalEdgeStyle;rounded=0;orthogonalLoop=1;jettySize=auto;html=1;" edge="1" parent="1" source="v-qG8luXAzPql-lUKYtl-16" target="v-qG8luXAzPql-lUKYtl-17">
          <mxGeometry relative="1" as="geometry" />
        </mxCell>
        <mxCell id="v-qG8luXAzPql-lUKYtl-23" value="" style="edgeStyle=orthogonalEdgeStyle;rounded=0;orthogonalLoop=1;jettySize=auto;html=1;" edge="1" parent="1" source="v-qG8luXAzPql-lUKYtl-16" target="v-qG8luXAzPql-lUKYtl-2">
          <mxGeometry relative="1" as="geometry" />
        </mxCell>
        <mxCell id="v-qG8luXAzPql-lUKYtl-16" value="CPU" style="rounded=0;whiteSpace=wrap;html=1;" vertex="1" parent="1">
          <mxGeometry x="590" y="320" width="80" height="70" as="geometry" />
        </mxCell>
        <mxCell id="v-qG8luXAzPql-lUKYtl-22" value="" style="edgeStyle=orthogonalEdgeStyle;rounded=0;orthogonalLoop=1;jettySize=auto;html=1;" edge="1" parent="1" source="v-qG8luXAzPql-lUKYtl-17" target="v-qG8luXAzPql-lUKYtl-16">
          <mxGeometry relative="1" as="geometry">
            <Array as="points">
              <mxPoint x="690" y="340" />
              <mxPoint x="690" y="340" />
            </Array>
          </mxGeometry>
        </mxCell>
        <mxCell id="v-qG8luXAzPql-lUKYtl-17" value="FPGA" style="rounded=0;whiteSpace=wrap;html=1;" vertex="1" parent="1">
          <mxGeometry x="710" y="320" width="80" height="70" as="geometry" />
        </mxCell>
        <mxCell id="v-qG8luXAzPql-lUKYtl-20" value="" style="edgeStyle=orthogonalEdgeStyle;rounded=0;orthogonalLoop=1;jettySize=auto;html=1;" edge="1" parent="1" source="v-qG8luXAzPql-lUKYtl-18" target="v-qG8luXAzPql-lUKYtl-16">
          <mxGeometry relative="1" as="geometry" />
        </mxCell>
        <mxCell id="v-qG8luXAzPql-lUKYtl-18" value="DRAM&lt;br&gt;(model params)" style="rounded=0;whiteSpace=wrap;html=1;" vertex="1" parent="1">
          <mxGeometry x="590" y="450" width="120" height="70" as="geometry" />
        </mxCell>
      </root>
    </mxGraphModel>
  </diagram>
</mxfile>
